<?xml version="1.0" standalone="no"?><!DOCTYPE svg PUBLIC "-//W3C//DTD SVG 1.1//EN" "http://www.w3.org/Graphics/SVG/1.1/DTD/svg11.dtd"><svg t="1496657934095" class="icon" style="" viewBox="0 0 1024 1024" version="1.1" xmlns="http://www.w3.org/2000/svg" p-id="56088" xmlns:xlink="http://www.w3.org/1999/xlink" width="32" height="32"><defs><style type="text/css"></style></defs><path d="M187.983907 281.813411l189.981912 0L377.965819 159.218258l634.755812 0 0 612.980879L854.635149 772.199137c-13.68672 52.713572-61.193711 91.891873-118.250194 91.891873-57.065693 0-104.426351-39.178301-118.244055-91.891873l-179.242314 0-60.932768 0-35.46063 0c-13.602809 52.713572-61.194734 91.891873-118.205169 91.891873-57.060577 0-104.494912-39.178301-118.16833-91.891873L9.834484 772.199137 9.834484 649.581472 9.834484 496.352625 187.983907 281.813411zM736.412584 823.669392c45.356001 0 82.054831-36.885072 82.054831-82.092693 0-45.367257-36.697807-82.046644-82.054831-82.046644-45.195342 0-82.06711 36.679387-82.06711 82.046644C654.34445 786.78432 691.217243 823.669392 736.412584 823.669392zM422.152181 710.781322l195.98872 0c13.817704-52.698223 61.178361-91.798752 118.244055-91.798752 57.056484 0 104.563474 39.10053 118.250194 91.798752l114.028033 0L968.663182 201.203488 422.152181 201.203488 422.152181 710.781322zM224.300021 822.137503c44.394093 0 80.564897-36.106336 80.564897-80.560804 0-44.557822-36.170804-80.585363-80.564897-80.585363-44.432978 0-80.526011 36.027541-80.526011 80.585363C143.774009 786.031167 179.867042 822.137503 224.300021 822.137503zM56.24449 649.581472l0 61.199851 49.8872 0c13.673417-52.698223 61.10673-91.798752 118.16833-91.798752 57.010435 0 104.60236 39.10053 118.205169 91.798752l34.972513 0L377.477702 331.710844 216.730625 331.710844 56.24449 518.452969 56.24449 649.581472z" p-id="56089" fill="#ff4e00"></path><path d="M255.029906 404.323629l-91.974761 122.628922 153.222707 0L316.277852 404.323629 255.029906 404.323629z" p-id="56090" fill="#ff4e00"></path></svg>