<?xml version="1.0" standalone="no"?><!DOCTYPE svg PUBLIC "-//W3C//DTD SVG 1.1//EN" "http://www.w3.org/Graphics/SVG/1.1/DTD/svg11.dtd"><svg t="1495003115192" class="icon" style="" viewBox="0 0 1024 1024" version="1.1" xmlns="http://www.w3.org/2000/svg" p-id="9814" xmlns:xlink="http://www.w3.org/1999/xlink" width="32" height="32"><defs><style type="text/css"></style></defs><path d="M512 0.0602c-282.758848 0-511.9398 229.180952-511.9398 511.9398s229.180952 511.9398 511.9398 511.9398 511.9398-229.180952 511.9398-511.9398S794.758848 0.0602 512 0.0602zM512 1003.231041c-271.32087 0-491.231041-219.97037-491.231041-491.231041 0-271.32087 219.97037-491.231041 491.231041-491.231041 271.32087 0 491.231041 219.97037 491.231041 491.231041C1003.231041 783.32087 783.32087 1003.231041 512 1003.231041zM718.906996 290.464433 506.82281 502.548618 294.738624 290.464433 280.110053 305.093004l212.084186 212.084186-212.084186 212.084186 14.628571 14.628571 212.084186-212.084186 212.084186 212.084186 14.628571-14.628571L521.451382 517.17719l212.084186-212.084186L718.906996 290.464433z" p-id="9815" fill="#ffffff"></path></svg>