<?xml version="1.0" standalone="no"?><!DOCTYPE svg PUBLIC "-//W3C//DTD SVG 1.1//EN" "http://www.w3.org/Graphics/SVG/1.1/DTD/svg11.dtd"><svg t="1494311436622" class="icon" style="" viewBox="0 0 1024 1024" version="1.1" xmlns="http://www.w3.org/2000/svg" p-id="21453" xmlns:xlink="http://www.w3.org/1999/xlink" width="32" height="32"><defs><style type="text/css"></style></defs><path d="M89.431128 845.108519c0.030232-0.689292 0.070542-1.375561 0.104805-2.063846C89.466399 843.72288 89.431128 844.412172 89.431128 845.108519zM846.145984 405.412651c-8.172748-11.580915-24.183676-14.343123-35.764591-6.171382L378.612385 703.912453 232.874448 496.614877c-8.172748-11.579907-24.184684-14.343123-35.764591-6.171382-11.580915 8.172748-14.342115 24.184684-6.171382 35.764591l160.496248 228.292771c0.254957 0.361778 0.518985 0.714486 0.789058 1.060139 8.380342 10.679998 23.757403 13.027018 34.975533 5.109227l452.776296-319.49399C851.555517 433.004493 854.317725 416.992558 846.145984 405.412651zM504.787121 16.459371c-277.981266 0-503.330437 225.348163-503.330437 503.32943 0 277.983282 225.349171 503.330437 503.330437 503.330437 277.982274 0 503.330437-225.347156 503.330437-503.330437C1008.117559 241.807534 782.769395 16.459371 504.787121 16.459371zM504.787121 970.571792c-248.960452 0-450.781984-201.820524-450.781984-450.782992 0-248.959444 201.821532-450.781984 450.781984-450.781984 248.96146 0 450.780977 201.82254 450.780977 450.781984C955.568098 768.751268 753.748581 970.571792 504.787121 970.571792z" p-id="21454"></path></svg>