<?xml version="1.0" standalone="no"?><!DOCTYPE svg PUBLIC "-//W3C//DTD SVG 1.1//EN" "http://www.w3.org/Graphics/SVG/1.1/DTD/svg11.dtd"><svg t="1494924949651" class="icon" style="" viewBox="0 0 1024 1024" version="1.1" xmlns="http://www.w3.org/2000/svg" p-id="529" xmlns:xlink="http://www.w3.org/1999/xlink" width="32" height="32"><defs><style type="text/css"></style></defs><path d="M952.999946 465.958384c-7.592932-8.373715-20.535709-9.004071-28.9084-1.411139-172.7259 156.647713-339.312986 226.001267-495.145124 206.129684-106.389052-13.56597-188.036607-67.481927-237.796917-110.323665-54.56371-46.977941-83.981716-91.408873-84.272336-91.851964-6.181793-9.449209-18.854417-12.107759-28.311812-5.933129-9.465582 6.1777-12.130272 18.859533-5.952572 28.325115 1.285273 1.969864 32.161491 48.829102 90.636276 99.44899 17.246803 14.930037 35.129078 28.647457 53.514821 41.066301l-112.997564 89.499383c-8.860808 7.016811-10.353812 19.890003-3.335978 28.750811 4.040013 5.100158 10.019191 7.759731 16.056698 7.759731 4.450359 0 8.933463-1.445932 12.69309-4.423752l124.636648-98.717326a506.092453 506.092453 0 0 0 18.97312 10.146081c38.476313 19.493983 78.531588 33.44574 119.444393 41.665958l-47.855938 124.877126c-4.045129 10.55438 1.233084 22.38994 11.787465 26.435069a20.419052 20.419052 0 0 0 7.319709 1.360997c8.231475 0 15.993253-5.003967 19.11536-13.148461l51.044559-133.200698a453.1558 453.1558 0 0 0 47.345308 2.479471c32.584116 0 65.620533-3.457752 98.946547-10.336416l49.308009 131.447774c3.082198 8.215102 10.878768 13.283538 19.165501 13.283538 2.387373 0 4.817726-0.421602 7.184633-1.309832 10.583033-3.969405 15.944134-15.767102 11.973706-26.350135L619.953687 694.689832a590.390371 590.390371 0 0 0 42.912346-14.114462c31.636534-11.752672 63.588247-26.603915 95.748714-44.457538l101.777011 113.094778c4.041036 4.491291 9.618055 6.77531 15.219633 6.77531 4.878101 0 9.772574-1.733481 13.683651-5.253654 8.401344-7.561209 9.082866-20.500916 1.521656-28.903283L794.611589 614.927207c52.018747-32.353872 104.484679-72.454172 156.977218-120.060423 8.373715-7.592932 9.005095-20.535709 1.411139-28.9084z" p-id="530" fill="#ffffff"></path></svg>