<?xml version="1.0" standalone="no"?><!DOCTYPE svg PUBLIC "-//W3C//DTD SVG 1.1//EN" "http://www.w3.org/Graphics/SVG/1.1/DTD/svg11.dtd"><svg t="1494311410647" class="icon" style="" viewBox="0 0 1024 1024" version="1.1" xmlns="http://www.w3.org/2000/svg" p-id="21239" xmlns:xlink="http://www.w3.org/1999/xlink" width="32" height="32"><defs><style type="text/css"></style></defs><path d="M513.350253 66.00325c-246.296499 0-446.673156 200.376657-446.673156 446.673156s200.376657 446.673156 446.673156 446.673156c246.296499 0 446.672132-200.376657 446.672132-446.673156S759.644705 66.00325 513.350253 66.00325zM513.350253 906.279878C296.309054 906.279878 119.747803 729.70737 119.747803 512.676405s176.561251-393.603473 393.60245-393.603473c217.029942 0 393.60245 176.572508 393.60245 393.603473S730.380194 906.279878 513.350253 906.279878z" p-id="21240"></path><path d="M714.426851 298.315246l-40.034808-22.621207 3.929496-6.953366c7.203052-12.759605 2.704598-28.945239-10.05296-36.157501-12.759605-7.170307-28.944216-2.705622-36.157501 10.051937L488.826719 496.240061c-16.947997-6.391571-34.939767-9.785877-53.068659-9.785877-54.365188 0-104.739483 29.385261-131.467217 76.67838-40.908712 72.418356-15.280008 164.624385 57.138348 205.541283 22.621207 12.772908 48.244794 19.529799 74.086345 19.529799 54.365188 0 104.739483-29.377074 131.449821-76.66917 19.822464-35.075867 24.794709-75.779917 14.008039-114.603131-8.060583-29.014824-24.221658-54.366212-46.496987-73.603345l74.722842-132.26028 40.045041 22.620184c4.126994 2.323928 8.612145 3.438309 13.032828 3.438309 9.251711 0 18.253736-4.854565 23.122627-13.494339 7.215332-12.757558 2.713808-28.942169-10.042727-36.157501L635.313002 344.854189l12.96529-22.950711 40.045041 22.621207c4.129041 2.323928 8.601912 3.436262 13.025665 3.436262 9.259898 0 18.251689-4.853541 23.130813-13.492292C731.682863 321.714166 727.194642 305.527508 714.426851 298.315246zM520.760013 685.429935c-17.318434 30.65723-49.977251 49.700959-85.244476 49.700959-16.72287 0-33.307593-4.377704-47.975664-12.671601-46.945195-26.51591-63.554478-86.281085-37.037545-133.227304 17.328667-30.66337 49.994648-49.709145 85.254709-49.709145 16.721847 0 33.30657 4.377704 47.973618 12.671601 22.741957 12.844539 39.119973 33.782408 46.109154 58.944484C536.83513 636.308167 533.613762 662.686954 520.760013 685.429935z" p-id="21241"></path></svg>