<?xml version="1.0" standalone="no"?><!DOCTYPE svg PUBLIC "-//W3C//DTD SVG 1.1//EN" "http://www.w3.org/Graphics/SVG/1.1/DTD/svg11.dtd"><svg class="icon" width="200px" height="200.00px" viewBox="0 0 1024 1024" version="1.1" xmlns="http://www.w3.org/2000/svg"><path fill="#333333" d="M871.8 243.7c-110.2-24.4-197.1-69.2-250.6-102.5-58.3-36.3-90.7-67.2-91-67.4-10.4-10.1-27-10.1-37.4 0-1.3 1.2-129.5 123-341.6 170-12.4 2.7-21.1 13.7-21.1 26.3v350.3c0 3.1 0.5 6.1 1.5 9 0.9 2.6 22.8 63.8 79.7 134.5 33.3 41.4 71.8 77.6 114.6 107.8 53.4 37.7 113.5 65.8 178.6 83.5 2.3 0.6 4.7 1 7.1 1s4.8-0.3 7.1-1c65.1-17.8 125.2-45.8 178.6-83.5 42.7-30.1 81.3-66.4 114.6-107.8 56.9-70.7 78.8-131.9 79.7-134.5 1-2.9 1.5-5.9 1.5-9V270c-0.1-12.6-8.9-23.6-21.3-26.3zM839 615.3c-5.6 13.9-26.9 62.3-70.6 116.3-67.2 82.8-153.6 139.7-256.9 169.4-103.3-29.6-189.7-86.6-256.9-169.4-43.8-54-65.1-102.4-70.6-116.3V291.4c108.4-27 193.9-71.7 247.8-105.4 36.4-22.8 63.3-43.5 79.7-57 16.4 13.6 43.3 34.3 79.7 57 53.9 33.7 139.4 78.3 247.8 105.4v323.9z"  /><path fill="#333333" d="M367.2 516.6c-12.3-8.4-29.1-5.3-37.5 7-8.4 12.3-5.3 29.1 7 37.5l111 76.3c4.6 3.2 10 4.7 15.3 4.7 7 0 13.9-2.7 19.1-7.9l208.1-208c10.5-10.5 10.5-27.6 0-38.2-10.5-10.5-27.6-10.5-38.2 0L459.7 580.1l-92.5-63.5z"  /></svg>