<?xml version="1.0" standalone="no"?><!DOCTYPE svg PUBLIC "-//W3C//DTD SVG 1.1//EN" "http://www.w3.org/Graphics/SVG/1.1/DTD/svg11.dtd"><svg t="1492413262275" class="icon" style="" viewBox="0 0 1024 1024" version="1.1" xmlns="http://www.w3.org/2000/svg" p-id="2902" xmlns:xlink="http://www.w3.org/1999/xlink" width="200" height="200"><defs><style type="text/css"></style></defs><path d="M738.031 9.438h-453.7c-25.515 0-46.217 20.719-46.217 46.234v829.15c0 25.549 20.702 46.217 46.217 46.217h453.7c25.515 0 46.217-20.668 46.217-46.217v-829.15c0-25.515-20.702-46.234-46.217-46.234zM750.114 884.822c0 6.673-5.41 12.083-12.083 12.083h-453.7c-6.673 0-12.083-5.41-12.083-12.083v-158.464h477.867v158.464zM750.114 692.224h-477.867v-545.553h477.867v545.553zM750.114 112.538h-477.867v-56.866c0-6.673 5.41-12.1 12.083-12.1h453.7c6.673 0 12.083 5.427 12.083 12.1v56.866z" p-id="2903"></path><path d="M459.981 794.505h102.4v34.133h-102.4v-34.133z" p-id="2904"></path></svg>