<?xml version="1.0" standalone="no"?><!DOCTYPE svg PUBLIC "-//W3C//DTD SVG 1.1//EN" "http://www.w3.org/Graphics/SVG/1.1/DTD/svg11.dtd"><svg t="1494901473197" class="icon" style="" viewBox="0 0 1024 1024" version="1.1" xmlns="http://www.w3.org/2000/svg" p-id="2371" xmlns:xlink="http://www.w3.org/1999/xlink" width="32" height="32"><defs><style type="text/css"></style></defs><path d="M366.056431 807.559421 261.534777 807.559421C177.177759 807.559421 108.8 739.16776 108.8 654.778198L108.8 258.381222C108.8 173.968888 177.231078 105.6 261.82117 105.6L761.622307 105.6C846.146694 105.6 914.643478 174.000862 914.643478 258.381222L914.643478 654.778198C914.643478 739.260685 846.349062 807.559421 761.666774 807.559421L630.944451 807.559421C623.972115 807.559421 617.301424 810.403296 612.47376 815.433914L475.395974 958.274493C465.606448 968.475574 465.94008 984.681165 476.141162 994.470691 486.342243 1004.260218 502.54783 1003.926586 512.337357 993.725507L649.415142 850.884925 630.944451 858.759421 761.666774 858.759421C874.626765 858.759421 965.843478 767.536941 965.843478 654.778198L965.843478 258.381222C965.843478 145.707809 874.407626 54.4 761.622307 54.4L261.82117 54.4C148.964515 54.4 57.6 145.681483 57.6 258.381222L57.6 654.778198C57.6 767.44241 148.89845 858.759421 261.534777 858.759421L366.056431 858.759421C380.194922 858.759421 391.656432 847.29791 391.656432 833.159421 391.656432 819.020931 380.194922 807.559421 366.056431 807.559421L366.056431 807.559421ZM279.605797 387.2 672.417392 387.2C686.555882 387.2 698.017392 375.73849 698.017392 361.6 698.017392 347.46151 686.555882 336 672.417392 336L279.605797 336C265.467308 336 254.005797 347.46151 254.005797 361.6 254.005797 375.73849 265.467308 387.2 279.605797 387.2L279.605797 387.2ZM279.605797 547.2 743.83768 547.2C757.97617 547.2 769.43768 535.73849 769.43768 521.6 769.43768 507.46151 757.97617 496 743.83768 496L279.605797 496C265.467308 496 254.005797 507.46151 254.005797 521.6 254.005797 535.73849 265.467308 547.2 279.605797 547.2L279.605797 547.2Z" p-id="2372" fill="#fb343e"></path></svg>