<?xml version="1.0" standalone="no"?><!DOCTYPE svg PUBLIC "-//W3C//DTD SVG 1.1//EN" "http://www.w3.org/Graphics/SVG/1.1/DTD/svg11.dtd"><svg t="1494841323060" class="icon" style="" viewBox="0 0 1024 1024" version="1.1" xmlns="http://www.w3.org/2000/svg" p-id="14517" xmlns:xlink="http://www.w3.org/1999/xlink" width="32" height="32"><defs><style type="text/css"></style></defs><path d="M512 1020.992c-280.704 0-508.992-228.224-508.992-508.992 0-280.64 228.288-508.992 508.992-508.992S1020.992 231.36 1020.992 512C1020.992 792.768 792.704 1020.992 512 1020.992zM512 86.336C277.248 86.336 86.336 277.248 86.336 512c0 234.624 190.912 425.6 425.664 425.6 234.624 0 425.6-190.976 425.6-425.6C937.6 277.248 746.624 86.336 512 86.336zM704.896 252.672L617.28 252.672l-49.92 91.904c-27.52 51.712-44.352 86.016-50.624 103.04L514.944 447.616C500.992 415.936 467.456 350.784 414.592 252.672L321.088 252.672l123.456 212.096L296.064 464.768l0 68.736 173.952 0 0 94.72L296.064 628.224l0 69.504 173.952 0 0 137.856 86.4 0 0-137.856 167.808 0L724.224 628.224 556.352 628.224l0-94.72 167.808 0L724.16 464.832 580.224 464.832 704.896 252.672z" p-id="14518" fill="#f01818"></path></svg>