<?xml version="1.0" standalone="no"?><!DOCTYPE svg PUBLIC "-//W3C//DTD SVG 1.1//EN" "http://www.w3.org/Graphics/SVG/1.1/DTD/svg11.dtd"><svg t="1494311454928" class="icon" style="" viewBox="0 0 1024 1024" version="1.1" xmlns="http://www.w3.org/2000/svg" p-id="21613" xmlns:xlink="http://www.w3.org/1999/xlink" width="32" height="32"><defs><style type="text/css"></style></defs><path d="M733.665519 947.106726 290.416346 947.106726c-94.15645 0-167.910221-56.271608-167.910221-128.044258L122.506125 547.942607c0-71.721485 73.753771-127.969557 167.910221-127.969557l443.249173 0c94.103238 0 167.828356 56.248072 167.828356 127.969557l0 271.119861C901.493875 890.835118 827.768757 947.106726 733.665519 947.106726L733.665519 947.106726zM290.416346 478.260571c-58.93732 0-108.676142 31.958876-108.676142 69.683059l0 271.119861c0 37.773302 49.737798 69.734224 108.676142 69.734224l443.249173 0c58.901505 0 108.60144-31.960922 108.60144-69.734224L842.266959 547.942607c0-37.72316-49.699935-69.683059-108.60144-69.683059L290.416346 478.259548 290.416346 478.260571zM290.416346 478.260571" p-id="21614"></path><path d="M511.980557 574.97324c-36.44505 0-66.017576 29.05678-66.017576 64.924685 0 25.833365 15.518438 48.00841 37.731346 58.465576l0 71.454402c0 15.384385 12.709463 27.872814 28.28623 27.872814 15.607466 0 28.361955-12.488429 28.361955-27.872814l0-71.454402c22.183232-10.457166 37.7293-32.632211 37.7293-58.465576C578.071811 604.028996 548.499285 574.97324 511.980557 574.97324L511.980557 574.97324 511.980557 574.97324zM511.980557 574.97324" p-id="21615"></path><path d="M273.250384 474.609415c-13.765515 0-26.092261-9.473769-28.972868-23.231097-21.636786-103.06126-7.738241-193.226816 40.190351-260.767072 42.659589-59.921741 109.910249-99.336426 189.503005-110.819968 71.29272-10.351766 142.328589 7.227612 200.12083 49.554626 57.875129 42.222637 95.435583 104.161315 105.921401 174.22095 2.438539 15.953344-8.778944 30.747281-24.991184 33.118282-16.07921 2.313695-31.212886-8.667404-33.592073-24.613584-8.217149-54.667064-37.561477-103.017258-82.658581-135.99637-45.12064-32.971949-100.564393-46.656623-156.12378-38.601156-63.312978 9.17701-116.421546 39.872103-149.563364 86.559425-38.416961 54.031591-49.03581 128.561028-30.769794 215.505215 3.311419 15.784498-6.959505 31.212886-23.024389 34.479279C277.248442 474.42522 275.238668 474.609415 273.250384 474.609415L273.250384 474.609415zM273.250384 474.609415" p-id="21616"></path></svg>