<?xml version="1.0" standalone="no"?><!DOCTYPE svg PUBLIC "-//W3C//DTD SVG 1.1//EN" "http://www.w3.org/Graphics/SVG/1.1/DTD/svg11.dtd"><svg t="1493012576638" class="icon" style="" viewBox="0 0 1024 1024" version="1.1" xmlns="http://www.w3.org/2000/svg" p-id="2378" xmlns:xlink="http://www.w3.org/1999/xlink" width="200" height="200"><defs><style type="text/css"></style></defs><path d="M512 135.168c-222.72 0-402.944 180.224-402.944 402.944 0 222.208 180.224 402.944 402.944 402.944 222.208 0 402.944-180.224 402.944-402.944S734.72 135.168 512 135.168z m61.44 594.944c0 5.632-2.048 11.264-5.632 15.36-3.584 4.096-8.704 6.144-13.824 6.144h-66.56c-5.12 0-9.728-2.048-13.824-6.144-3.584-4.096-5.632-9.728-5.632-15.36v-35.84c0-5.632 2.048-11.264 5.632-15.36 3.584-4.096 8.704-6.144 13.824-6.144h67.072c5.12 0 9.728 2.048 13.824 6.144 3.584 4.096 5.632 9.728 5.632 15.36v35.84z m-5.632-117.76c-3.584 3.072-8.704 4.096-13.824 4.096h-66.56c-5.12 0-9.728-1.536-13.824-4.096-3.584-2.56-5.632-6.656-5.632-10.24l-0.512-101.888V340.48c0-3.584 2.048-7.168 5.632-10.24 3.584-3.072 8.704-4.096 13.824-4.096h67.072c5.12 0 9.728 1.536 13.824 4.096 3.584 3.072 5.632 6.656 5.632 10.24v261.632c0 3.584-1.536 7.168-5.632 10.24z" fill="#d81e06" p-id="2379"></path></svg>