<?xml version="1.0" standalone="no"?><!DOCTYPE svg PUBLIC "-//W3C//DTD SVG 1.1//EN" "http://www.w3.org/Graphics/SVG/1.1/DTD/svg11.dtd"><svg t="1494555141432" class="icon" style="" viewBox="0 0 1024 1024" version="1.1" xmlns="http://www.w3.org/2000/svg" p-id="2937" xmlns:xlink="http://www.w3.org/1999/xlink" width="32" height="32"><defs><style type="text/css"></style></defs><path d="M676.572196 664.635329 333.660242 664.635329c-6.227842 0-11.276834 5.037736-11.276834 11.295254 0 6.227842 5.050016 11.260461 11.276834 11.260461l342.911954 0c6.245238 0 11.295254-5.031597 11.295254-11.260461C687.86745 669.673066 682.81641 664.635329 676.572196 664.635329zM676.572196 571.302641 333.660242 571.302641c-6.227842 0-11.276834 5.065366-11.276834 11.292184 0 6.227842 5.050016 11.262508 11.276834 11.262508l342.911954 0c6.245238 0 11.295254-5.034666 11.295254-11.262508C687.86745 576.36903 682.81641 571.302641 676.572196 571.302641zM676.572196 478.002698 333.660242 478.002698c-6.227842 0-11.276834 5.067412-11.276834 11.294231s5.050016 11.276834 11.276834 11.276834l342.911954 0c6.245238 0 11.295254-5.051039 11.295254-11.276834C687.86745 483.07011 682.81641 478.002698 676.572196 478.002698zM333.660242 409.411507l156.858514 0c6.244214 0 11.278881-5.034666 11.278881-11.262508 0-6.226818-5.034666-11.294231-11.278881-11.294231L333.660242 386.854768c-6.227842 0-11.276834 5.067412-11.276834 11.294231C322.383408 404.375817 327.432401 409.411507 333.660242 409.411507zM832.885288 259.57185l-121.600499-119.829156c-5.282307-5.233188-12.388145-8.114818-19.789719-8.114818L210.17072 131.627876c-15.58393 0-28.202319 12.603039-28.202319 28.185946l0 686.057221c0 7.619538 3.096525 14.971993 8.627495 20.272719l85.251639 85.237313c10.913561 10.532891 28.218692 10.532891 39.148625 0l86.957491-86.894046 90.237187 87.008656c10.929934 10.530844 28.218692 10.530844 39.147602 0l90.23821-87.008656 90.237187 87.008656c5.464455 5.282307 12.518105 7.913227 19.572778 7.913227 7.054673 0 14.126742-2.631944 19.59222-7.913227l81.694627-78.762855c5.494131-5.330402 8.608052-12.653181 8.608052-20.303418L841.281515 279.644001C841.282538 272.093025 838.269925 264.87053 832.885288 259.57185zM731.387639 915.290089l-90.237187-87.024006c-10.912537-10.529821-28.218692-10.529821-39.163975 0l-90.220814 87.024006-90.25356-87.024006c-5.464455-5.26491-12.501732-7.882528-19.558451-7.882528-7.071046 0-14.109346 2.617617-19.590174 7.882528l-86.943165 87.925538-66.170049-65.112973L229.250264 177.884386 674.567539 177.884386l0 91.940992c0 9.339716 7.569396 16.925485 16.925485 16.925485l105.539708 0 0 570.851363L731.387639 915.290089z" p-id="2938" fill="#333333"></path></svg>