<?xml version="1.0" standalone="no"?><!DOCTYPE svg PUBLIC "-//W3C//DTD SVG 1.1//EN" "http://www.w3.org/Graphics/SVG/1.1/DTD/svg11.dtd"><svg t="1492079990810" class="icon" style="" viewBox="0 0 1024 1024" version="1.1" xmlns="http://www.w3.org/2000/svg" p-id="1432" xmlns:xlink="http://www.w3.org/1999/xlink" width="200" height="200"><defs><style type="text/css"></style></defs><path d="M584.413 509.475c76.142-43.216 130.125-146.583 130.125-232.077 0-111.221-91.302-201.349-203.92-201.349-112.618 0-203.913 90.128-203.913 201.349 0 84.62 52.882 186.748 127.793 230.731-330.086 30.679-332.659 263.515-332.659 367.28l790.816 0c0.001-117.726-51.937-331.601-308.241-365.934zM357.684 277.397c0-83.401 68.47-151.011 152.934-151.011 84.463 0 152.932 67.611 152.932 151.011 0 83.399-68.469 202.281-152.932 202.281-84.465 0-152.934-118.882-152.934-202.281zM512.687 835.854c-84.465 0-365.056 2.635-365.056 0 0-251.107 236.597-288.739 365.056-288.739 259.397 0 334.632 193.642 334.632 288.739 0 0.38-250.169 0-334.632 0z" p-id="1433"></path></svg>