<?xml version="1.0" standalone="no"?><!DOCTYPE svg PUBLIC "-//W3C//DTD SVG 1.1//EN" "http://www.w3.org/Graphics/SVG/1.1/DTD/svg11.dtd"><svg t="1494815883813" class="icon" style="" viewBox="0 0 1024 1024" version="1.1" xmlns="http://www.w3.org/2000/svg" p-id="2367" xmlns:xlink="http://www.w3.org/1999/xlink" width="32" height="32"><defs><style type="text/css"></style></defs><path d="M512 275.968c-81.408 0-147.456 66.048-147.456 147.456 0 16.384 13.312 29.696 29.696 29.696 16.384 0 29.696-13.312 29.696-29.696 0-49.152 39.424-88.576 88.576-88.576s88.576 39.424 88.576 88.576c0 38.4-20.48 69.632-59.904 86.016-33.792 14.336-57.856 42.496-57.856 73.216l0 23.552c0 12.8 13.312 26.624 29.696 26.624 16.384 0 29.696-13.824 29.696-26.624l0-18.944c0-18.432 29.696-29.184 29.696-29.184 51.712-23.04 88.064-74.24 88.064-134.656C659.456 342.016 593.408 275.968 512 275.968z" p-id="2368" fill="#666666"></path><path d="M512.512 677.376l-0.512 0c-13.824 0-24.576 11.264-24.576 24.576l0 22.016c0 13.824 11.264 24.576 24.576 24.576l0.512 0c13.824 0 24.576-11.264 24.576-24.576l0-22.016C537.088 688.128 525.824 677.376 512.512 677.376z" p-id="2369" fill="#666666"></path><path d="M512 128c-211.968 0-384 172.032-384 384 0 211.968 172.032 384 384 384 211.968 0 384-172.032 384-384C896 300.032 723.968 128 512 128zM512 837.12c-179.712 0-325.12-145.408-325.12-325.12 0-179.2 145.408-325.12 325.12-325.12S837.12 332.8 837.12 512C837.12 691.712 691.712 837.12 512 837.12z" p-id="2370" fill="#666666"></path></svg>