<?xml version="1.0" standalone="no"?><!DOCTYPE svg PUBLIC "-//W3C//DTD SVG 1.1//EN" "http://www.w3.org/Graphics/SVG/1.1/DTD/svg11.dtd"><svg t="1493002640630" class="icon" style="" viewBox="0 0 1024 1024" version="1.1" xmlns="http://www.w3.org/2000/svg" p-id="1019" xmlns:xlink="http://www.w3.org/1999/xlink" width="200" height="200"><defs><style type="text/css"></style></defs><path d="M512 98.185206C275.601942 98.185206 83.966367 289.821805 83.966367 526.219863c0 236.397035 191.635575 428.033633 428.033633 428.033633 236.398058 0 428.033633-191.637622 428.033633-428.033633 0-236.398058-191.636598-428.034657-428.033633-428.034657z m244.400313 295.928897L460.219683 696.711885c-1.010003 1.515516-2.133593 2.960425-3.457752 4.30198a29.408797 29.408797 0 0 1-42.043558 0l-147.116639-149.382239c-11.601222-11.791557-11.601222-30.898731 0-42.672892a29.395494 29.395494 0 0 1 42.034349 0l125.660978 127.57763 279.060716-285.111526a29.408797 29.408797 0 0 1 42.043559 0c11.599176 11.790534 11.599176 30.897707-0.001023 42.689265z" fill="#09BB07" p-id="1020"></path></svg>