<?xml version="1.0" standalone="no"?><!DOCTYPE svg PUBLIC "-//W3C//DTD SVG 1.1//EN" "http://www.w3.org/Graphics/SVG/1.1/DTD/svg11.dtd"><svg t="1494831029132" class="icon" style="" viewBox="0 0 1024 1024" version="1.1" xmlns="http://www.w3.org/2000/svg" p-id="4326" xmlns:xlink="http://www.w3.org/1999/xlink" width="32" height="32"><defs><style type="text/css"></style></defs><path d="M508.032 944.384a440.896 440.896 0 0 1-440.384-440.384A440.896 440.896 0 0 1 508.032 63.616a440.832 440.832 0 0 1 440.32 440.384 440.832 440.832 0 0 1-440.32 440.384z m0-835.968c-218.112 0-395.584 177.472-395.584 395.584s177.408 395.648 395.584 395.648c218.112 0 395.584-177.472 395.584-395.648s-177.472-395.584-395.584-395.584z" p-id="4327" fill="#ffffff"></path><path d="M484.032 289.344h56l-9.344 313.344h-40z" p-id="4328" fill="#ffffff"></path><path d="M510.656 688m-36.032 0a36.032 36.032 0 1 0 72.064 0 36.032 36.032 0 1 0-72.064 0Z" p-id="4329" fill="#ffffff"></path></svg>