<?xml version="1.0" standalone="no"?><!DOCTYPE svg PUBLIC "-//W3C//DTD SVG 1.1//EN" "http://www.w3.org/Graphics/SVG/1.1/DTD/svg11.dtd"><svg t="1494924255536" class="icon" style="" viewBox="0 0 1024 1024" version="1.1" xmlns="http://www.w3.org/2000/svg" p-id="11161" xmlns:xlink="http://www.w3.org/1999/xlink" width="32" height="32"><defs><style type="text/css"></style></defs><path d="M781.936943 851.555038 242.071372 851.555038c-62.863379 0-102.414563-13.464271-120.950595-41.097736-17.307865-25.859467-7.414373-51.878227-6.231775-54.766668l2.956595-5.1629 93.862961-122.747377 0-155.293511c0-251.066777 243.629619-298.646518 246.085954-299.078625l4.093824-0.386738 104.279499 0.386738c2.479119 0.454892 246.085954 48.011848 246.085954 299.078625l0 155.293511 96.842341 127.910077c1.205383 2.888442 11.07609 28.907201-6.20899 54.766668C884.351306 838.090567 844.800321 851.555038 781.936943 851.555038zM156.600921 774.749712c-0.318384 2.365396-0.363953 6.663882 2.592842 10.803275 4.412209 6.163621 21.310751 20.514691 82.877809 20.514691l539.865371 0c61.567058 0 78.4656-14.35127 82.877809-20.514691 2.888442-4.093824 2.888442-8.301372 2.524488-10.848645l-100.572212-131.503641 0-170.713656c0-205.124725-184.678188-249.406502-206.898723-253.978003l-95.727896 0c-22.038458 4.61687-206.944292 49.626553-206.944292 253.978003l0 170.713656L156.600921 774.749712zM591.618179 201.928884l-45.48716 0L546.131019 144.614943c0-18.809047-15.306422-34.11547-34.11547-34.11547-18.809047 0-34.11547 15.306422-34.11547 34.11547l0 57.313941-45.48716 0L432.41292 144.614943c0-43.895239 35.70739-79.602629 79.602629-79.602629s79.602629 35.70739 79.602629 79.602629L591.618179 201.928884zM511.992765 959.587192c-89.496122 0-154.451882-59.520045-154.451882-141.579009l45.48736 0c0 56.586235 44.805022 96.09185 108.964722 96.09185s108.987506-39.482831 108.987506-96.09185l45.48716 0C666.467431 900.044362 601.511671 959.587192 511.992765 959.587192z" p-id="11162" fill="#ffffff"></path></svg>