<?xml version="1.0" standalone="no"?><!DOCTYPE svg PUBLIC "-//W3C//DTD SVG 1.1//EN" "http://www.w3.org/Graphics/SVG/1.1/DTD/svg11.dtd"><svg t="1496631308628" class="icon" style="" viewBox="0 0 1024 1024" version="1.1" xmlns="http://www.w3.org/2000/svg" p-id="4232" xmlns:xlink="http://www.w3.org/1999/xlink" width="16" height="16"><defs><style type="text/css"></style></defs><path d="M173.184 523.264l339.136-339.136 339.136 339.136c12.608 12.608 33.024 12.8 45.504 0.256a32.64 32.64 0 0 0-0.256-45.568L534.976 116.224a32 32 0 0 0-45.248 0L127.936 478.016a32.192 32.192 0 0 0-0.256 45.504c12.16 12.16 32.896 12.416 45.504-0.256z m361.792-23.04a32 32 0 0 0-45.248 0L128 861.952a32.256 32.256 0 0 0-0.256 45.568 32.64 32.64 0 0 0 45.568-0.256l339.136-339.136 339.136 339.136c12.608 12.608 33.024 12.8 45.504 0.256a32.64 32.64 0 0 0-0.256-45.568L534.976 500.224z" fill="#999999" p-id="4233"></path></svg>