<?xml version="1.0" standalone="no"?><!DOCTYPE svg PUBLIC "-//W3C//DTD SVG 1.1//EN" "http://www.w3.org/Graphics/SVG/1.1/DTD/svg11.dtd"><svg t="1493012264041" class="icon" style="" viewBox="0 0 1024 1024" version="1.1" xmlns="http://www.w3.org/2000/svg" p-id="1686" xmlns:xlink="http://www.w3.org/1999/xlink" width="200" height="200"><defs><style type="text/css"></style></defs><path d="M512 0C229.230933 0 0 229.230933 0 512s229.230933 512 512 512 512-229.230933 512-512S794.769067 0 512 0zM720.6912 720.6912c-6.664533 6.664533-17.467733 6.664533-24.1408 0L503.466667 527.598933c-0.5888-0.5888-1.066667-1.245867-1.553067-1.8944C497.698133 522.5984 494.933333 517.632 494.933333 512L494.933333 204.8c0-9.4208 7.637333-17.066667 17.066667-17.066667s17.066667 7.645867 17.066667 17.066667l0 300.125867 191.624533 191.633067C727.355733 703.223467 727.355733 714.026667 720.6912 720.6912z" p-id="1687" fill="#1296db"></path></svg>