<?xml version="1.0" standalone="no"?><!DOCTYPE svg PUBLIC "-//W3C//DTD SVG 1.1//EN" "http://www.w3.org/Graphics/SVG/1.1/DTD/svg11.dtd"><svg t="1494923873906" class="icon" style="" viewBox="0 0 1024 1024" version="1.1" xmlns="http://www.w3.org/2000/svg" p-id="2375" xmlns:xlink="http://www.w3.org/1999/xlink" width="32" height="32"><defs><style type="text/css"></style></defs><path d="M463.828372 754.22374c0-26.600845 21.567201-48.167023 48.168046-48.167023 26.606984 0 48.173163 21.566178 48.173163 48.167023 0 26.606984-21.566178 48.173163-48.173163 48.173163C485.395574 802.396903 463.828372 780.830725 463.828372 754.22374L463.828372 754.22374zM511.996418 960.648137c-247.924579 0-449.606974-201.683419-449.606974-449.609021 0-247.924579 201.682395-449.607998 449.606974-449.607998 247.929696 0 449.613114 201.683419 449.613114 449.607998C961.609533 758.964718 759.926114 960.648137 511.996418 960.648137L511.996418 960.648137zM511.996418 125.94955c-212.341153 0-385.088542 172.747389-385.088542 385.089565 0 212.308407 172.747389 385.090589 385.088542 385.090589 212.3125 0 385.094682-172.782182 385.094682-385.090589C897.085984 298.696939 724.307895 125.94955 511.996418 125.94955L511.996418 125.94955zM511.996418 673.317059c-17.727757 0-32.112372-14.389732-32.112372-32.116465l0-54.30686c0-52.540633 40.143279-92.679819 75.598792-128.101563 25.978674-26.013467 52.859905-52.863998 52.859905-74.283844 0-53.53631-43.2265-97.081059-96.346325-97.081059-54.017264 0-96.340185 41.682331-96.340185 94.89937 0 17.727757-14.389732 32.111349-32.117488 32.111349s-32.116465-14.384615-32.116465-32.111349c0-87.742367 72.034617-159.133324 160.574139-159.133324 88.541569 0 160.575162 72.357981 160.575162 161.315012 0 48.074925-36.45119 84.496439-71.680553 119.726825-27.940352 27.868721-56.777121 56.710606-56.777121 82.625836l0 54.305837C544.113907 658.893558 529.724175 673.317059 511.996418 673.317059L511.996418 673.317059zM511.996418 673.317059" p-id="2376" fill="#ffffff"></path></svg>