<?xml version="1.0" standalone="no"?><!DOCTYPE svg PUBLIC "-//W3C//DTD SVG 1.1//EN" "http://www.w3.org/Graphics/SVG/1.1/DTD/svg11.dtd"><svg t="1494830888812" class="icon" style="" viewBox="0 0 1024 1024" version="1.1" xmlns="http://www.w3.org/2000/svg" p-id="3033" xmlns:xlink="http://www.w3.org/1999/xlink" width="32" height="32"><defs><style type="text/css"></style></defs><path d="M511.996768 49.140364C257.157818 49.140364 49.792646 258.21996 49.792646 515.232323 49.792646 772.25503 257.152646 981.333333 511.996768 981.333333c254.848 0 462.210586-209.078303 462.210586-466.10101C974.207354 258.21996 766.846061 49.140364 511.996768 49.140364L511.996768 49.140364 511.996768 49.140364zM511.996768 931.333172c-227.505131 0-412.58796-186.666667-412.58796-416.100848 0-229.425131 185.082828-416.073697 412.58796-416.073697 227.510303 0 412.594424 186.648566 412.594424 416.073697C924.591192 744.666505 739.508364 931.333172 511.996768 931.333172L511.996768 931.333172 511.996768 931.333172zM623.811879 271.432404 550.414869 407.822222c-19.586586 36.94804-31.528081 61.538263-35.917576 73.700848l-1.269657 0c-12.89697-29.604202-49.32396-99.616323-109.292606-210.090667l-69.038545 0L463.271434 493.811071l-105.258667 0 0 49.155879 123.380364 0 0 67.713293-123.376485 0 0 49.745455 123.380364 0 0 98.616889 61.216323 0 0-98.620768 119.01802 0L661.631354 610.676364l-119.021899 0 0-67.709414 119.021899 0 0-49.161051-102.142707 0 129.622626-222.374788-65.295515 0L623.811879 271.431111 623.811879 271.432404zM623.811879 271.432404" p-id="3034" fill="#ffffff"></path></svg>